<?xml version="1.0" encoding="utf-8"?>
<!-- Generator: Adobe Illustrator 23.0.0, SVG Export Plug-In . SVG Version: 6.00 Build 0)  -->
<svg version="1.1" id="Layer_1" xmlns="http://www.w3.org/2000/svg" xmlns:xlink="http://www.w3.org/1999/xlink" x="0px" y="0px"
	 viewBox="0 0 402.6 274.2" style="enable-background:new 0 0 402.6 274.2;" xml:space="preserve">
<title>clipcamwhite</title>
<path d="M137.5,58.6c38-28.5,91.1-25,125,8.2l22.6-17l-10.3-13.8c0,0-19.5-29.4-59.3-35.1s-66.7,17-66.7,17L0,129.4l64.3,85.9
	l8.8,11.8l45-33.7C86.3,150.8,95,90.5,137.5,58.6C137.5,58.6,137.5,58.6,137.5,58.6z"/>
<path d="M236.3,256.2l166.3-124.6l-63.7-85l-8.9-12L272.2,78c31.8,42.6,23,102.9-19.6,134.7c-37.9,28.2-90.6,24.8-124.5-8.1
	l-27.5,20.6l9.7,13c0,0,18.8,29.4,59.3,35.2S236.3,256.2,236.3,256.2z"/>
<path d="M218,57.4c-43.2-12.6-88.4,12.2-101,55.4s12.2,88.4,55.4,101c43.2,12.6,88.4-12.2,101-55.4C286,115.2,261.2,70,218,57.4
	C218,57.4,218,57.4,218,57.4z M222.4,146.8c-16.4,2.4-31.5-9-33.9-25.4c-2.4-16.4,9-31.5,25.4-33.9c16.4-2.4,31.5,9,33.9,25.4
	c0,0,0,0,0,0C250.1,129.3,238.8,144.4,222.4,146.8C222.4,146.8,222.4,146.8,222.4,146.8z"/>
</svg>
